
    <svg width="28" viewBox="0 0 35 35" fill="none" xmlns="http://www.w3.org/2000/svg">
        <path d="M33.2772 31.8795L28.0645 26.458C26.2921 24.6146 26.301 21.7494 27.2524 19.3757C27.9147 17.723 28.2625 15.9466 28.2625 14.1312C28.2625 6.3394 21.9231 0 14.1312 0C6.3394 0 0 6.3394 0 14.1312C0 21.9231 6.3394 28.2625 14.1312 28.2625C15.6011 28.2625 17.0361 28.0397 18.4026 27.6056C20.7536 26.8587 23.4889 27.0176 25.1986 28.7958L30.6205 34.4348C30.9714 34.7991 31.4432 35 31.9489 35C32.4275 35 32.8815 34.8175 33.2262 34.4857C33.9586 33.781 33.9819 32.6124 33.2772 31.8795ZM14.1312 3.68641C19.8906 3.68641 24.5761 8.37184 24.5761 14.1312C24.5761 19.8906 19.8906 24.5761 14.1312 24.5761C8.37184 24.5761 3.68641 19.8906 3.68641 14.1312C3.68641 8.37184 8.37184 3.68641 14.1312 3.68641Z" fill="#17A2B8"/>
    </svg>
