<svg width="35" height="35" viewBox="0 0 40 40" fill="none" xmlns="http://www.w3.org/2000/svg">
<circle cx="20" cy="20" r="19.5" fill="white" stroke="#17A2B8"/>
<path d="M32.1979 28.6772C28.9109 32.5948 24.5669 34.7292 19.9645 34.7292C15.3614 34.7292 11.0181 32.5955 7.73044 28.6772C8.36789 24.6293 10.469 21.4027 13.6335 19.535C15.3163 21.2565 17.5617 22.2045 19.9638 22.2045C22.366 22.2045 24.6114 21.2558 26.2942 19.5349C29.4586 21.4027 31.5598 24.6293 32.1979 28.6772ZM27.0624 12.3988C27.0624 16.3119 23.8777 19.4967 19.9645 19.4967C16.0515 19.4967 12.8667 16.3106 12.8667 12.3981C12.8667 8.48558 16.0514 5.30017 19.9645 5.30017C23.8776 5.30017 27.0624 8.48554 27.0624 12.3988Z" fill="white" stroke="#17A2B8"/>
</svg>
