<svg width="40" height="40" viewBox="0 0 50 50" fill="none" xmlns="http://www.w3.org/2000/svg">
<circle cx="25" cy="25" r="24.5" fill="white" stroke="#17A2B8"/>
<path d="M40.377 35.8831C36.2429 40.8328 30.7641 43.5363 24.953 43.5363C19.141 43.5363 13.6631 40.8337 9.52811 35.8831C10.325 30.7281 13.0073 26.6175 17.0606 24.261C19.1481 26.4334 21.9509 27.6304 24.9521 27.6304C27.9534 27.6304 30.7562 26.4325 32.8436 24.261C36.8969 26.6175 39.5792 30.7281 40.377 35.8831ZM33.9504 15.4983C33.9504 20.4587 29.9135 24.4956 24.953 24.4956C19.9926 24.4956 15.9556 20.4571 15.9556 15.4974C15.9556 10.5377 19.9925 6.5 24.953 6.5C29.9134 6.5 33.9504 10.5377 33.9504 15.4983Z" fill="white" stroke="#17A2B8"/>
</svg>
